<?xml version="1.0" standalone="no"?><!DOCTYPE svg PUBLIC "-//W3C//DTD SVG 1.1//EN" "http://www.w3.org/Graphics/SVG/1.1/DTD/svg11.dtd"><svg t="1777123496168" class="icon" viewBox="0 0 1024 1024" version="1.1" xmlns="http://www.w3.org/2000/svg" p-id="9043" xmlns:xlink="http://www.w3.org/1999/xlink" width="200" height="200"><path d="M921.6 716.75904L415.46752 210.66752a136.25344 136.25344 0 0 0-96.54272-39.99744c-70.93248 0-128.53248 54.272-135.19872 123.43296L102.4 375.43936h86.12864C210.59584 506.39872 294.57408 616.09984 409.6 673.49504v179.84512h68.27008V700.34432a405.18656 405.18656 0 0 0 68.25984 13.70112v139.30496H614.4V716.75904h307.2zM448.93184 340.6336L620.2368 511.95904h-39.95648c-75.27424 0-136.54016-61.22496-136.54016-136.52992-0.01024-12.12416 2.12992-23.63392 5.19168-34.79552z m-198.26688-33.46432a68.32128 68.32128 0 0 1 68.25984-68.22912c18.19648 0 35.36896 7.09632 48.27136 19.99872l28.4672 28.4672a202.37312 202.37312 0 0 0-20.20352 88.03328c0 112.92672 91.86304 204.8 204.8 204.8h108.22656l68.27008 68.25984H592.00512c-188.20096 0-341.34016-153.1392-341.34016-341.32992z" p-id="9044"></path></svg>