<svg version="1.0" xmlns="http://www.w3.org/2000/svg" width="800.000000" height="800.000000" viewBox="0 0 800.000000 800.000000" preserveAspectRatio="xMidYMid meet">
  <metadata>
    <rdf:RDF xmlns:rdf="http://www.w3.org/1999/02/22-rdf-syntax-ns#" xmlns:rdfs="http://www.w3.org/2000/01/rdf-schema#" xmlns:dc="http://purl.org/dc/elements/1.1/">
      <rdf:Description dc:format="image/svg+xml" dc:Label="1" dc:ContentProducer="001191330110MACRLGPT8B00000" dc:ProduceID="478220708" dc:ReservedCode1="/QG1sRi9nZahpxzK6PAJGBNwP6Yr03UXx9YecV9iR3w=" dc:ContentPropagator="001191330110MACRLGPT8B00000" dc:PropagateID="478220708" dc:ReservedCode2="/QG1sRi9nZahpxzK6PAJGBNwP6Yr03UXx9YecV9iR3w="/>
    </rdf:RDF>
  </metadata>
  <g transform="translate(115.209822,690.424713) scale(0.069326,-0.069326)" fill="#000000" stroke="none">
    <path d="M3783 7206 c-29 -7 -59 -19 -68 -26 -40 -33 -40 -78 0 -104 31 -20 206 -50 440 -76 340 -36 431 -55 674 -137 175 -58 513 -191 527 -206 6 -7 16 -30 22 -52 15 -52 66 -101 127 -123 l48 -17 299 -445 c164 -245 342 -515 394 -600 53 -85 127 -202 165 -259 40 -61 69 -115 69 -130 0 -31 31 -101 52 -118 12 -11 13 -23 6 -65 -12 -80 -44 -291 -73 -498 -47 -330 -64 -408 -147 -680 -57 -188 -153 -398 -243 -531 -136 -200 -218 -309 -233 -309 -25 0 -197 136 -290 229 -46 45 -82 85 -80 86 2 2 27 -3 55 -10 85 -22 228 -29 333 -15 141 18 200 56 200 127 0 42 -26 65 -103 93 -182 65 -340 192 -519 417 -204 257 -289 467 -407 996 l-19 89 21 -7 c35 -11 134 -18 161 -11 36 9 66 45 66 78 0 21 -15 41 -61 85 -33 32 -70 70 -80 85 l-20 28 53 23 c115 52 223 156 298 290 25 45 34 74 38 126 4 66 4 68 -29 95 -43 36 -71 33 -213 -28 -97 -42 -156 -59 -278 -80 -36 -6 -38 -5 -64 41 -54 93 -183 269 -255 347 l-73 79 23 18 c13 10 78 53 145 96 145 92 215 142 279 202 26 24 50 42 53 39 8 -8 -50 -166 -85 -232 -17 -32 -31 -72 -31 -87 0 -38 32 -69 70 -69 17 0 30 -4 30 -9 0 -5 -36 -42 -80 -82 -63 -57 -80 -79 -80 -100 0 -64 68 -78 142 -29 148 98 216 271 131 335 -10 8 -8 20 13 65 36 77 53 164 60 316 6 117 5 134 -12 162 -21 37 -64 55 -98 42 -13 -5 -43 -32 -67 -61 -140 -167 -210 -227 -445 -377 -89 -56 -167 -108 -173 -116 -10 -12 -25 -8 -95 25 -119 55 -192 72 -316 72 -118 0 -198 -18 -293 -63 -33 -17 -65 -30 -70 -30 -5 0 -86 58 -180 128 -95 70 -194 144 -222 164 -46 33 -118 105 -202 201 -38 44 -84 50 -127 16 -38 -30 -46 -50 -56 -140 -12 -102 3 -222 37 -307 l25 -64 -22 -40 c-27 -48 -24 -93 11 -165 32 -64 136 -169 180 -181 42 -11 88 1 112 29 26 32 21 54 -18 86 -127 102 -142 123 -86 123 56 0 68 55 26 128 -31 54 -75 176 -75 207 0 21 10 17 104 -53 57 -42 149 -111 206 -152 56 -41 107 -81 112 -88 9 -10 -1 -25 -39 -65 -94 -98 -175 -210 -249 -344 -16 -29 -36 -53 -45 -53 -45 0 -233 32 -289 49 -110 34 -152 41 -195 31 -55 -12 -95 -58 -95 -108 0 -110 179 -317 336 -389 30 -13 54 -28 54 -33 0 -11 -53 -64 -118 -118 -44 -36 -52 -48 -52 -77 0 -25 7 -39 27 -55 25 -19 38 -21 113 -18 68 2 96 8 140 30 30 15 56 25 59 22 9 -9 -62 -301 -104 -429 -80 -244 -148 -390 -261 -562 -161 -244 -382 -429 -619 -518 -87 -32 -115 -57 -115 -102 0 -86 142 -148 340 -147 126 0 173 14 285 83 44 28 82 48 84 45 2 -2 -35 -55 -82 -117 -96 -127 -199 -229 -291 -289 -62 -40 -236 -128 -254 -128 -17 0 -215 307 -294 455 -92 173 -158 312 -158 335 0 10 7 31 15 46 32 62 11 145 -55 217 -44 48 -49 51 -108 55 l-62 4 -35 53 c-19 29 -39 64 -44 78 -15 38 -49 262 -56 362 -13 179 29 486 115 840 27 110 51 219 55 242 12 77 -26 143 -82 143 -49 0 -81 -47 -143 -214 -146 -386 -179 -575 -187 -1071 -6 -365 3 -498 48 -717 53 -260 119 -453 248 -723 189 -394 406 -674 686 -882 201 -150 714 -459 962 -579 289 -141 572 -194 1030 -194 536 0 934 92 1368 314 575 296 1016 713 1297 1231 202 371 296 657 365 1105 26 170 28 207 28 460 -1 210 -5 302 -18 390 -51 335 -108 515 -257 812 -277 553 -528 847 -997 1169 -75 51 -151 111 -170 134 -52 63 -83 77 -163 76 -63 -1 -80 4 -266 83 -435 182 -643 238 -1019 271 -203 18 -381 18 -452 1z m2278 -983 c216 -188 381 -400 542 -698 221 -409 301 -688 322 -1130 14 -284 -46 -729 -140 -1041 -36 -120 -137 -380 -154 -397 -5 -5 -14 7 -21 30 -7 21 -23 49 -35 63 l-24 25 15 120 c8 66 21 190 29 275 8 85 21 216 29 290 8 74 24 227 36 340 11 113 27 269 35 348 8 78 15 205 15 281 0 134 1 141 25 169 32 38 45 74 45 124 0 78 -55 156 -122 173 -24 6 -50 44 -198 291 -56 94 -525 802 -550 829 -9 11 -26 34 -36 50 -18 29 -17 29 31 -10 28 -21 98 -81 156 -132z m-1927 -243 c238 -61 418 -233 595 -571 33 -63 69 -137 80 -165 20 -52 20 -52 0 -90 -35 -69 -20 -215 56 -549 19 -85 35 -161 35 -169 0 -8 -30 -28 -67 -46 l-68 -32 -34 19 c-19 10 -52 30 -73 46 -46 33 -49 63 -17 153 38 108 47 148 37 167 -16 32 -50 19 -105 -40 l-53 -58 25 70 c39 111 35 185 -16 299 -58 128 -75 181 -84 261 -9 84 -27 123 -61 131 -18 5 -32 0 -49 -16 -30 -29 -41 -62 -55 -175 -14 -119 -26 -154 -57 -166 -27 -10 -257 -12 -317 -2 -48 8 -61 34 -85 180 -19 108 -37 143 -75 143 -37 0 -65 -28 -80 -83 -9 -28 -26 -90 -40 -137 -13 -47 -36 -114 -51 -150 -34 -79 -35 -155 -6 -254 11 -38 19 -71 17 -74 -2 -2 -19 19 -37 47 -27 41 -39 51 -62 51 -41 0 -48 -30 -31 -131 8 -46 21 -109 29 -140 8 -31 15 -59 15 -62 0 -10 -143 -117 -155 -117 -7 0 -31 14 -55 31 -33 24 -41 35 -37 52 3 12 19 76 36 142 43 164 61 281 61 402 0 94 -2 104 -26 132 -15 18 -39 33 -60 37 -19 3 -34 10 -34 15 0 24 175 364 228 444 143 214 331 369 500 409 77 19 87 19 176 -4z m1186 -496 c0 -30 -128 -165 -195 -206 -76 -47 -79 -46 -104 24 -40 111 -42 104 34 113 63 6 183 41 222 64 20 11 43 14 43 5z m-2409 -74 c30 -5 90 -12 134 -14 44 -3 79 -9 77 -13 -45 -144 -44 -143 -117 -107 -61 30 -190 143 -164 144 8 0 40 -4 70 -10z m1479 -443 c0 -5 14 -32 30 -59 17 -26 30 -59 30 -72 0 -31 -31 -104 -76 -178 -48 -79 -58 -116 -39 -145 21 -32 63 -30 112 6 l40 29 -1 -72 c-1 -65 2 -76 27 -110 16 -20 46 -49 68 -63 22 -14 38 -29 37 -33 -2 -4 -40 -36 -86 -70 -91 -69 -112 -98 -112 -162 0 -52 23 -92 86 -152 44 -43 46 -46 35 -78 -10 -29 -25 -39 -109 -80 -151 -73 -264 -170 -368 -313 l-21 -29 -39 74 c-72 138 -197 234 -341 262 -32 6 -61 14 -65 17 -3 3 -9 31 -13 61 l-6 55 51 30 c28 16 60 40 72 52 25 26 36 109 19 141 -6 11 -24 85 -40 164 -16 79 -38 171 -49 205 -11 34 -17 64 -15 67 3 3 23 -9 46 -25 45 -33 82 -37 109 -12 26 23 23 49 -20 149 -21 49 -46 117 -56 152 -16 58 -16 67 -1 117 8 30 20 57 25 60 6 4 24 -5 40 -18 52 -44 87 -50 289 -45 167 4 190 7 228 26 24 12 52 36 64 52 17 23 26 27 36 19 7 -6 13 -16 13 -22z m-844 -722 c6 -36 8 -67 6 -70 -7 -6 -107 62 -107 74 0 12 64 60 81 61 6 0 15 -29 20 -65z m1414 16 c0 -5 3 -23 6 -41 6 -29 5 -31 -12 -22 -10 6 -28 18 -39 26 -20 16 -20 16 -1 31 22 17 46 20 46 6z m-1563 -167 c57 -36 118 -70 134 -76 41 -14 36 -32 -18 -60 -31 -16 -55 -38 -68 -61 -17 -32 -18 -40 -7 -79 26 -86 26 -85 -3 -92 -19 -5 -43 1 -81 20 l-55 27 7 53 c7 62 -6 91 -57 121 -20 12 -40 37 -56 73 l-24 55 47 43 c27 23 55 42 62 42 8 0 61 -30 119 -66z m1449 35 c51 -32 104 -78 104 -89 0 -4 -25 -27 -55 -51 -60 -48 -80 -84 -72 -128 6 -27 4 -29 -31 -35 -20 -3 -51 -8 -68 -12 l-31 -6 5 51 5 51 -62 59 c-33 32 -61 63 -61 68 0 14 27 35 104 82 39 22 79 41 91 41 12 0 43 -14 71 -31z m291 -276 c109 -192 277 -393 407 -488 111 -81 108 -77 48 -71 -118 12 -231 96 -333 247 -62 92 -99 129 -132 129 -18 0 -19 5 -13 46 8 64 -9 121 -51 163 l-35 35 22 18 c12 10 25 16 29 13 4 -2 30 -44 58 -92z m-2068 39 c20 -21 47 -45 60 -53 23 -15 24 -18 13 -62 -18 -68 -5 -91 72 -129 l65 -32 -55 -59 c-30 -32 -73 -94 -94 -137 -30 -59 -52 -88 -87 -115 -57 -44 -72 -68 -73 -117 0 -40 30 -84 72 -106 24 -13 24 -15 20 -134 -9 -242 48 -424 204 -654 73 -108 125 -172 222 -275 34 -37 62 -69 62 -72 0 -3 -17 -1 -37 4 -21 4 -87 15 -147 24 -122 18 -229 41 -526 114 -113 27 -227 53 -255 57 -44 6 -54 12 -80 48 -17 22 -51 55 -76 71 -26 17 -57 44 -71 60 -32 38 -158 227 -158 236 0 4 15 11 33 14 60 14 202 80 277 132 191 129 308 277 444 566 75 156 106 243 113 314 5 46 3 54 -20 77 -53 53 -94 32 -187 -99 -64 -90 -127 -152 -209 -206 -77 -51 -162 -83 -207 -77 -25 3 -21 7 39 45 188 121 389 337 506 546 18 31 35 57 38 57 3 0 22 -17 42 -38z m-1709 -242 c1 -62 29 -119 83 -166 36 -31 53 -57 82 -129 88 -215 225 -461 374 -672 47 -67 106 -159 131 -204 25 -46 71 -126 102 -179 43 -71 58 -105 58 -133 0 -35 -1 -37 -21 -27 -39 21 -241 225 -303 305 -199 257 -404 674 -502 1020 -50 176 -74 270 -74 299 0 29 1 28 35 -20 27 -38 35 -59 35 -94z m3599 63 c-23 -61 -75 -146 -111 -184 -47 -48 -148 -115 -239 -158 -79 -37 -142 -82 -165 -116 -24 -36 -34 -93 -23 -124 22 -55 52 -54 118 5 48 43 285 178 302 172 11 -4 -25 -105 -48 -137 -12 -15 -84 -60 -172 -106 -228 -119 -315 -207 -279 -282 9 -20 27 -33 63 -44 54 -18 57 -24 70 -118 l7 -50 -59 -37 c-32 -20 -119 -77 -194 -125 -74 -49 -142 -89 -151 -89 -8 0 -53 23 -99 51 -46 28 -120 72 -164 97 -265 149 -305 178 -442 315 l-103 102 0 77 c0 99 -19 147 -78 197 l-45 39 36 32 c23 20 52 65 80 123 76 160 147 207 298 194 89 -7 177 -47 227 -101 24 -26 57 -86 91 -164 30 -67 65 -134 79 -147 56 -56 110 -40 160 49 91 164 242 320 371 384 43 22 125 54 182 71 57 18 126 39 154 48 27 8 66 23 85 34 51 27 62 25 49 -8z m141 -263 c76 -230 233 -464 423 -632 157 -138 292 -184 380 -130 75 47 311 373 421 582 32 60 56 96 56 83 0 -11 -7 -81 -15 -155 -13 -111 -20 -139 -41 -170 -15 -21 -29 -59 -33 -92 -4 -31 -10 -58 -12 -60 -2 -2 -110 -84 -239 -181 -129 -98 -278 -212 -330 -254 -151 -122 -332 -259 -510 -387 -158 -113 -292 -213 -372 -277 -36 -29 -39 -29 -83 -17 -62 17 -120 7 -172 -30 l-44 -30 -77 24 c-42 13 -111 32 -152 41 -41 10 -131 32 -200 50 -69 18 -137 35 -152 39 -19 4 -32 17 -42 40 -7 18 -42 57 -76 87 -125 107 -196 175 -269 254 -115 125 -268 349 -258 378 2 6 34 -18 73 -53 85 -78 191 -148 349 -230 66 -34 147 -81 180 -103 33 -22 75 -51 94 -64 37 -25 71 -29 104 -12 12 6 81 50 152 97 72 47 167 110 213 140 45 30 99 75 120 99 20 25 75 87 122 138 47 50 96 107 108 126 14 19 21 25 18 14 -3 -11 -10 -42 -16 -70 -40 -186 -169 -394 -417 -674 -78 -86 -91 -123 -55 -153 42 -37 123 -28 312 33 271 88 458 180 671 330 112 79 159 123 159 149 0 22 -26 50 -45 50 -8 0 -56 -28 -107 -63 -190 -129 -381 -224 -610 -302 -94 -32 -117 -33 -81 -4 30 25 189 242 243 332 120 201 153 374 96 511 -9 21 -23 63 -30 94 -14 53 -14 58 10 115 32 80 48 177 41 248 -6 50 -3 66 24 124 17 37 32 66 34 64 1 -2 17 -47 35 -99z m-359 -568 c-29 -58 -99 -132 -124 -132 -7 0 -32 14 -56 31 -30 23 -39 35 -32 42 11 11 219 114 234 116 4 1 -6 -25 -22 -57z m1786 -119 c-33 -75 -158 -260 -251 -373 -70 -84 -271 -282 -371 -365 -105 -87 -296 -217 -405 -277 -160 -88 -221 -119 -307 -157 -122 -53 -392 -145 -473 -160 -36 -7 -83 -16 -105 -21 -179 -39 -665 -57 -870 -31 -306 38 -482 95 -755 242 -254 136 -512 289 -517 306 -5 13 41 33 77 33 17 0 146 -29 287 -65 316 -79 386 -95 583 -135 205 -42 389 -88 588 -149 94 -29 240 -63 345 -82 107 -19 188 -39 197 -47 67 -68 213 -50 276 34 16 21 42 50 58 64 45 39 325 251 522 395 98 72 322 238 498 370 510 382 597 443 628 445 4 0 2 -12 -5 -27z"/>
    <path d="M3997 4536 c-155 -58 -233 -241 -158 -371 61 -105 144 -175 191 -160 35 11 34 43 -4 116 -42 81 -46 120 -13 142 45 29 106 25 146 -9 44 -36 40 -65 -14 -123 -69 -74 -59 -131 22 -131 34 0 123 58 156 102 92 122 26 337 -126 415 -61 31 -147 39 -200 19z m136 -132 c26 -9 47 -20 47 -25 0 -5 -12 -4 -27 2 -16 6 -54 11 -85 11 -62 -1 -71 3 -35 18 32 13 48 12 100 -6z"/>
    <path d="M3361 3391 c-32 -59 13 -186 82 -231 43 -27 43 -26 3 -133 -30 -79 -33 -129 -8 -177 25 -51 74 -80 136 -80 72 0 116 25 144 82 27 54 24 102 -8 156 -16 26 -26 32 -55 32 -49 0 -68 -31 -59 -99 6 -43 4 -52 -11 -57 -26 -10 -49 9 -53 42 -2 15 6 66 19 112 21 79 25 85 58 99 88 37 130 97 131 186 0 51 -24 87 -59 87 -24 0 -29 -7 -61 -84 -27 -65 -57 -90 -94 -77 -18 7 -38 39 -80 131 -15 33 -70 41 -85 11z"/>
  </g>
</svg>